<?xml version="1.0" encoding="UTF-8" standalone="no"?>
<svg xmlnsDc="http://purl.org/dc/elements/1.1/" xmlnsCc="http://creativecommons.org/ns#"
   xmlnsRdf="http://www.w3.org/1999/02/22-rdf-syntax-ns#" xmlnsSvg="http://www.w3.org/2000/svg"
   xmlns="http://www.w3.org/2000/svg" id="svg899" class="" xmlSpace="preserve"
   style="enable-background:new 0 0 512 512" viewBox="0 0 512 512" y="0" x="0" height="512" width="512" version="1.1">
   <metadata id="metadata905">
      <rdfRDF>
         <ccWork rdfAbout="">
            <dcFormat>image/svg+xml</dcFormat>
            <dcType rdfResource="http://purl.org/dc/dcmitype/StillImage" />
            <dcTitle></dcTitle>
         </ccWork>
      </rdfRDF>
   </metadata>
   <defs id="defs903" />
   <g transform="matrix(-1,0,0,1,512,0)" id="g897">
      <g id="g865">
         <g id="g863">
            <path id="path861" class="" style="fill:#f5f5f5" data-original="#000000"
               d="M 256,0 C 114.837,0 0,114.837 0,256 0,397.163 114.837,512 256,512 397.163,512 512,397.163 512,256 512,114.837 397.163,0 256,0 Z m 79.083,271.083 -106.667,106.666 c -4.16,4.16 -9.621,6.251 -15.083,6.251 -5.461,0 -10.923,-2.091 -15.083,-6.251 -8.341,-8.341 -8.341,-21.824 0,-30.165 L 289.835,256 198.251,164.416 c -8.341,-8.341 -8.341,-21.824 0,-30.165 8.341,-8.341 21.824,-8.341 30.165,0 l 106.667,106.667 c 8.341,8.341 8.341,21.823 0,30.165 z" />
         </g>
      </g>
      <g id="g867">
      </g>
      <g id="g869">
      </g>
      <g id="g871">
      </g>
      <g id="g873">
      </g>
      <g id="g875">
      </g>
      <g id="g877">
      </g>
      <g id="g879">
      </g>
      <g id="g881">
      </g>
      <g id="g883">
      </g>
      <g id="g885">
      </g>
      <g id="g887">
      </g>
      <g id="g889">
      </g>
      <g id="g891">
      </g>
      <g id="g893">
      </g>
      <g id="g895">
      </g>
   </g>
</svg>